<mxfile host="Electron" modified="2023-04-14T11:53:58.857Z" agent="Mozilla/5.0 (Windows NT 10.0; Win64; x64) AppleWebKit/537.36 (KHTML, like Gecko) draw.io/21.1.2 Chrome/106.0.5249.199 Electron/21.4.3 Safari/537.36" etag="taFC8ISt7d63VOpUfEq8" version="21.1.2" type="device">
  <diagram name="Seite-1" id="pYjyNhxIMiE92v9KZce2">
    <mxGraphModel dx="1320" dy="1992" grid="1" gridSize="10" guides="1" tooltips="1" connect="1" arrows="1" fold="1" page="1" pageScale="1" pageWidth="827" pageHeight="1169" math="0" shadow="0">
      <root>
        <mxCell id="0" />
        <mxCell id="1" parent="0" />
        <mxCell id="OGdJ5ye3wo8_Q0QSOY4Z-23" value="UI" style="rounded=0;whiteSpace=wrap;html=1;" vertex="1" parent="1">
          <mxGeometry x="40" y="95" width="630" height="60" as="geometry" />
        </mxCell>
        <mxCell id="OGdJ5ye3wo8_Q0QSOY4Z-24" style="edgeStyle=orthogonalEdgeStyle;rounded=0;orthogonalLoop=1;jettySize=auto;html=1;entryX=0.75;entryY=1;entryDx=0;entryDy=0;" edge="1" parent="1" source="OGdJ5ye3wo8_Q0QSOY4Z-26" target="OGdJ5ye3wo8_Q0QSOY4Z-30">
          <mxGeometry relative="1" as="geometry">
            <Array as="points">
              <mxPoint x="100" y="375" />
              <mxPoint x="640" y="375" />
            </Array>
          </mxGeometry>
        </mxCell>
        <mxCell id="OGdJ5ye3wo8_Q0QSOY4Z-25" value="6. OK/Err" style="edgeLabel;html=1;align=center;verticalAlign=middle;resizable=0;points=[];" vertex="1" connectable="0" parent="OGdJ5ye3wo8_Q0QSOY4Z-24">
          <mxGeometry x="0.55" y="-5" relative="1" as="geometry">
            <mxPoint x="-68" y="-15" as="offset" />
          </mxGeometry>
        </mxCell>
        <mxCell id="OGdJ5ye3wo8_Q0QSOY4Z-26" value="Notification" style="rounded=0;whiteSpace=wrap;html=1;" vertex="1" parent="1">
          <mxGeometry x="40" y="225" width="120" height="60" as="geometry" />
        </mxCell>
        <mxCell id="OGdJ5ye3wo8_Q0QSOY4Z-27" value="Customer" style="rounded=0;whiteSpace=wrap;html=1;" vertex="1" parent="1">
          <mxGeometry x="295" y="225" width="120" height="60" as="geometry" />
        </mxCell>
        <mxCell id="OGdJ5ye3wo8_Q0QSOY4Z-28" style="edgeStyle=orthogonalEdgeStyle;rounded=0;orthogonalLoop=1;jettySize=auto;html=1;entryX=1;entryY=1;entryDx=0;entryDy=0;" edge="1" parent="1" source="OGdJ5ye3wo8_Q0QSOY4Z-30" target="OGdJ5ye3wo8_Q0QSOY4Z-26">
          <mxGeometry relative="1" as="geometry">
            <Array as="points">
              <mxPoint x="610" y="325" />
              <mxPoint x="160" y="325" />
            </Array>
          </mxGeometry>
        </mxCell>
        <mxCell id="OGdJ5ye3wo8_Q0QSOY4Z-29" value="4. notifyPolicyCreation" style="edgeLabel;html=1;align=center;verticalAlign=middle;resizable=0;points=[];" vertex="1" connectable="0" parent="OGdJ5ye3wo8_Q0QSOY4Z-28">
          <mxGeometry x="0.6327" y="2" relative="1" as="geometry">
            <mxPoint x="55" y="8" as="offset" />
          </mxGeometry>
        </mxCell>
        <mxCell id="OGdJ5ye3wo8_Q0QSOY4Z-30" value="Policy" style="rounded=0;whiteSpace=wrap;html=1;" vertex="1" parent="1">
          <mxGeometry x="550" y="225" width="120" height="60" as="geometry" />
        </mxCell>
        <mxCell id="OGdJ5ye3wo8_Q0QSOY4Z-31" value="Vertrag anlegen" style="text;html=1;align=center;verticalAlign=middle;resizable=0;points=[];autosize=1;strokeColor=none;fillColor=none;" vertex="1" parent="1">
          <mxGeometry x="285" y="40" width="110" height="30" as="geometry" />
        </mxCell>
        <mxCell id="OGdJ5ye3wo8_Q0QSOY4Z-32" value="" style="endArrow=classic;html=1;rounded=0;exitX=0;exitY=0.25;exitDx=0;exitDy=0;entryX=1;entryY=0.25;entryDx=0;entryDy=0;" edge="1" parent="1">
          <mxGeometry width="50" height="50" relative="1" as="geometry">
            <mxPoint x="549" y="240" as="sourcePoint" />
            <mxPoint x="414" y="240" as="targetPoint" />
          </mxGeometry>
        </mxCell>
        <mxCell id="OGdJ5ye3wo8_Q0QSOY4Z-33" value="2. getKunde &lt;br&gt;(Kundenobjekt)" style="edgeLabel;html=1;align=center;verticalAlign=middle;resizable=0;points=[];" vertex="1" connectable="0" parent="OGdJ5ye3wo8_Q0QSOY4Z-32">
          <mxGeometry x="0.5852" y="1" relative="1" as="geometry">
            <mxPoint x="42" y="-16" as="offset" />
          </mxGeometry>
        </mxCell>
        <mxCell id="OGdJ5ye3wo8_Q0QSOY4Z-34" value="" style="endArrow=classic;html=1;rounded=0;entryX=0.75;entryY=0;entryDx=0;entryDy=0;exitX=0.549;exitY=1.017;exitDx=0;exitDy=0;exitPerimeter=0;" edge="1" parent="1">
          <mxGeometry width="50" height="50" relative="1" as="geometry">
            <mxPoint x="642.8699999999999" y="156.01999999999998" as="sourcePoint" />
            <mxPoint x="642" y="225" as="targetPoint" />
          </mxGeometry>
        </mxCell>
        <mxCell id="OGdJ5ye3wo8_Q0QSOY4Z-35" value="1. Vertrag&lt;br&gt;anlegen&lt;br&gt;(KundenID+Katzendaten+Vertragsdaten)" style="edgeLabel;html=1;align=center;verticalAlign=middle;resizable=0;points=[];" vertex="1" connectable="0" parent="OGdJ5ye3wo8_Q0QSOY4Z-34">
          <mxGeometry x="0.3336" y="-1" relative="1" as="geometry">
            <mxPoint x="99" y="-17" as="offset" />
          </mxGeometry>
        </mxCell>
        <mxCell id="OGdJ5ye3wo8_Q0QSOY4Z-36" value="" style="endArrow=classic;html=1;rounded=0;entryX=0;entryY=0.75;entryDx=0;entryDy=0;exitX=1;exitY=0.75;exitDx=0;exitDy=0;" edge="1" parent="1" source="OGdJ5ye3wo8_Q0QSOY4Z-27" target="OGdJ5ye3wo8_Q0QSOY4Z-30">
          <mxGeometry width="50" height="50" relative="1" as="geometry">
            <mxPoint x="510" y="365" as="sourcePoint" />
            <mxPoint x="510" y="255" as="targetPoint" />
          </mxGeometry>
        </mxCell>
        <mxCell id="OGdJ5ye3wo8_Q0QSOY4Z-37" value="3. return Kunde (Kundenobjekt)" style="edgeLabel;html=1;align=center;verticalAlign=middle;resizable=0;points=[];" vertex="1" connectable="0" parent="OGdJ5ye3wo8_Q0QSOY4Z-36">
          <mxGeometry x="-0.2593" y="-2" relative="1" as="geometry">
            <mxPoint x="15" y="13" as="offset" />
          </mxGeometry>
        </mxCell>
        <mxCell id="OGdJ5ye3wo8_Q0QSOY4Z-38" value="" style="endArrow=classic;html=1;rounded=0;entryX=0.863;entryY=1.05;entryDx=0;entryDy=0;entryPerimeter=0;exitX=0.25;exitY=0;exitDx=0;exitDy=0;" edge="1" parent="1" source="OGdJ5ye3wo8_Q0QSOY4Z-30" target="OGdJ5ye3wo8_Q0QSOY4Z-23">
          <mxGeometry width="50" height="50" relative="1" as="geometry">
            <mxPoint x="380" y="425" as="sourcePoint" />
            <mxPoint x="430" y="375" as="targetPoint" />
          </mxGeometry>
        </mxCell>
        <mxCell id="OGdJ5ye3wo8_Q0QSOY4Z-39" value="5.&amp;nbsp; OK/Err" style="edgeLabel;html=1;align=center;verticalAlign=middle;resizable=0;points=[];" vertex="1" connectable="0" parent="OGdJ5ye3wo8_Q0QSOY4Z-38">
          <mxGeometry x="0.4897" y="2" relative="1" as="geometry">
            <mxPoint x="-31" as="offset" />
          </mxGeometry>
        </mxCell>
        <mxCell id="OGdJ5ye3wo8_Q0QSOY4Z-57" value="UI" style="rounded=0;whiteSpace=wrap;html=1;" vertex="1" parent="1">
          <mxGeometry x="910" y="550" width="630" height="60" as="geometry" />
        </mxCell>
        <mxCell id="OGdJ5ye3wo8_Q0QSOY4Z-58" value="Notification" style="rounded=0;whiteSpace=wrap;html=1;" vertex="1" parent="1">
          <mxGeometry x="910" y="680" width="120" height="60" as="geometry" />
        </mxCell>
        <mxCell id="OGdJ5ye3wo8_Q0QSOY4Z-59" value="Costumer" style="rounded=0;whiteSpace=wrap;html=1;" vertex="1" parent="1">
          <mxGeometry x="1165" y="680" width="120" height="60" as="geometry" />
        </mxCell>
        <mxCell id="OGdJ5ye3wo8_Q0QSOY4Z-60" value="Policy" style="rounded=0;whiteSpace=wrap;html=1;" vertex="1" parent="1">
          <mxGeometry x="1410" y="680" width="120" height="60" as="geometry" />
        </mxCell>
        <mxCell id="OGdJ5ye3wo8_Q0QSOY4Z-61" value="" style="endArrow=classic;html=1;rounded=0;entryX=0.692;entryY=0.033;entryDx=0;entryDy=0;entryPerimeter=0;exitX=0.94;exitY=1;exitDx=0;exitDy=0;exitPerimeter=0;" edge="1" parent="1" source="OGdJ5ye3wo8_Q0QSOY4Z-57" target="OGdJ5ye3wo8_Q0QSOY4Z-60">
          <mxGeometry width="50" height="50" relative="1" as="geometry">
            <mxPoint x="1132.5" y="615" as="sourcePoint" />
            <mxPoint x="1182.5" y="565" as="targetPoint" />
          </mxGeometry>
        </mxCell>
        <mxCell id="OGdJ5ye3wo8_Q0QSOY4Z-62" value="1. getPolicyList" style="text;html=1;align=center;verticalAlign=middle;resizable=0;points=[];autosize=1;strokeColor=none;fillColor=none;" vertex="1" parent="1">
          <mxGeometry x="1504" y="630" width="100" height="30" as="geometry" />
        </mxCell>
        <mxCell id="OGdJ5ye3wo8_Q0QSOY4Z-63" value="" style="endArrow=classic;html=1;rounded=0;entryX=0.847;entryY=1.05;entryDx=0;entryDy=0;entryPerimeter=0;exitX=0.25;exitY=0;exitDx=0;exitDy=0;" edge="1" parent="1" source="OGdJ5ye3wo8_Q0QSOY4Z-60" target="OGdJ5ye3wo8_Q0QSOY4Z-57">
          <mxGeometry width="50" height="50" relative="1" as="geometry">
            <mxPoint x="1132.5" y="615" as="sourcePoint" />
            <mxPoint x="1182.5" y="565" as="targetPoint" />
          </mxGeometry>
        </mxCell>
        <mxCell id="OGdJ5ye3wo8_Q0QSOY4Z-64" value="2. PolicyList" style="text;html=1;align=center;verticalAlign=middle;resizable=0;points=[];autosize=1;strokeColor=none;fillColor=none;" vertex="1" parent="1">
          <mxGeometry x="1340" y="630" width="90" height="30" as="geometry" />
        </mxCell>
        <mxCell id="OGdJ5ye3wo8_Q0QSOY4Z-65" value="Policyliste ansehen" style="text;html=1;align=center;verticalAlign=middle;resizable=0;points=[];autosize=1;strokeColor=none;fillColor=none;" vertex="1" parent="1">
          <mxGeometry x="1117.5" y="500" width="130" height="30" as="geometry" />
        </mxCell>
        <mxCell id="OGdJ5ye3wo8_Q0QSOY4Z-66" value="UI" style="rounded=0;whiteSpace=wrap;html=1;" vertex="1" parent="1">
          <mxGeometry x="25" y="555" width="630" height="60" as="geometry" />
        </mxCell>
        <mxCell id="OGdJ5ye3wo8_Q0QSOY4Z-67" value="Notification" style="rounded=0;whiteSpace=wrap;html=1;" vertex="1" parent="1">
          <mxGeometry x="25" y="685" width="120" height="60" as="geometry" />
        </mxCell>
        <mxCell id="OGdJ5ye3wo8_Q0QSOY4Z-68" value="Customer" style="rounded=0;whiteSpace=wrap;html=1;" vertex="1" parent="1">
          <mxGeometry x="280" y="685" width="120" height="60" as="geometry" />
        </mxCell>
        <mxCell id="OGdJ5ye3wo8_Q0QSOY4Z-69" value="Policy" style="rounded=0;whiteSpace=wrap;html=1;" vertex="1" parent="1">
          <mxGeometry x="535" y="685" width="120" height="60" as="geometry" />
        </mxCell>
        <mxCell id="OGdJ5ye3wo8_Q0QSOY4Z-70" value="Preis berechnen per Button" style="text;html=1;align=center;verticalAlign=middle;resizable=0;points=[];autosize=1;strokeColor=none;fillColor=none;" vertex="1" parent="1">
          <mxGeometry x="240" y="500" width="170" height="30" as="geometry" />
        </mxCell>
        <mxCell id="OGdJ5ye3wo8_Q0QSOY4Z-71" value="" style="endArrow=classic;html=1;rounded=0;exitX=0;exitY=0.25;exitDx=0;exitDy=0;entryX=1;entryY=0.25;entryDx=0;entryDy=0;" edge="1" parent="1">
          <mxGeometry width="50" height="50" relative="1" as="geometry">
            <mxPoint x="534" y="700" as="sourcePoint" />
            <mxPoint x="399" y="700" as="targetPoint" />
          </mxGeometry>
        </mxCell>
        <mxCell id="OGdJ5ye3wo8_Q0QSOY4Z-72" value="2. getKunde &lt;br&gt;(Kundenobjekt)" style="edgeLabel;html=1;align=center;verticalAlign=middle;resizable=0;points=[];" vertex="1" connectable="0" parent="OGdJ5ye3wo8_Q0QSOY4Z-71">
          <mxGeometry x="0.5852" y="1" relative="1" as="geometry">
            <mxPoint x="42" y="-16" as="offset" />
          </mxGeometry>
        </mxCell>
        <mxCell id="OGdJ5ye3wo8_Q0QSOY4Z-73" value="" style="endArrow=classic;html=1;rounded=0;entryX=0.75;entryY=0;entryDx=0;entryDy=0;exitX=0.549;exitY=1.017;exitDx=0;exitDy=0;exitPerimeter=0;" edge="1" parent="1">
          <mxGeometry width="50" height="50" relative="1" as="geometry">
            <mxPoint x="627.8699999999999" y="616.02" as="sourcePoint" />
            <mxPoint x="627" y="685" as="targetPoint" />
          </mxGeometry>
        </mxCell>
        <mxCell id="OGdJ5ye3wo8_Q0QSOY4Z-74" value="1. Preis errechnen&lt;br&gt;(KundenID+Katzendaten+Vertragsdaten)" style="edgeLabel;html=1;align=center;verticalAlign=middle;resizable=0;points=[];" vertex="1" connectable="0" parent="OGdJ5ye3wo8_Q0QSOY4Z-73">
          <mxGeometry x="0.3336" y="-1" relative="1" as="geometry">
            <mxPoint x="119" y="-17" as="offset" />
          </mxGeometry>
        </mxCell>
        <mxCell id="OGdJ5ye3wo8_Q0QSOY4Z-75" value="" style="endArrow=classic;html=1;rounded=0;entryX=0;entryY=0.75;entryDx=0;entryDy=0;exitX=1;exitY=0.75;exitDx=0;exitDy=0;" edge="1" parent="1" source="OGdJ5ye3wo8_Q0QSOY4Z-68" target="OGdJ5ye3wo8_Q0QSOY4Z-69">
          <mxGeometry width="50" height="50" relative="1" as="geometry">
            <mxPoint x="495" y="825" as="sourcePoint" />
            <mxPoint x="495" y="715" as="targetPoint" />
          </mxGeometry>
        </mxCell>
        <mxCell id="OGdJ5ye3wo8_Q0QSOY4Z-76" value="3. return Kunde (Kundenobjekt)" style="edgeLabel;html=1;align=center;verticalAlign=middle;resizable=0;points=[];" vertex="1" connectable="0" parent="OGdJ5ye3wo8_Q0QSOY4Z-75">
          <mxGeometry x="-0.2593" y="-2" relative="1" as="geometry">
            <mxPoint x="15" y="13" as="offset" />
          </mxGeometry>
        </mxCell>
        <mxCell id="OGdJ5ye3wo8_Q0QSOY4Z-77" value="" style="endArrow=classic;html=1;rounded=0;entryX=0.863;entryY=1.05;entryDx=0;entryDy=0;entryPerimeter=0;exitX=0.25;exitY=0;exitDx=0;exitDy=0;" edge="1" parent="1" source="OGdJ5ye3wo8_Q0QSOY4Z-69" target="OGdJ5ye3wo8_Q0QSOY4Z-66">
          <mxGeometry width="50" height="50" relative="1" as="geometry">
            <mxPoint x="365" y="885" as="sourcePoint" />
            <mxPoint x="415" y="835" as="targetPoint" />
          </mxGeometry>
        </mxCell>
        <mxCell id="OGdJ5ye3wo8_Q0QSOY4Z-78" value="4.&amp;nbsp; Preis" style="edgeLabel;html=1;align=center;verticalAlign=middle;resizable=0;points=[];" vertex="1" connectable="0" parent="OGdJ5ye3wo8_Q0QSOY4Z-77">
          <mxGeometry x="0.4897" y="2" relative="1" as="geometry">
            <mxPoint x="-31" as="offset" />
          </mxGeometry>
        </mxCell>
        <mxCell id="OGdJ5ye3wo8_Q0QSOY4Z-79" value="UI" style="rounded=0;whiteSpace=wrap;html=1;" vertex="1" parent="1">
          <mxGeometry x="910" y="125" width="630" height="60" as="geometry" />
        </mxCell>
        <mxCell id="OGdJ5ye3wo8_Q0QSOY4Z-80" value="Notification" style="rounded=0;whiteSpace=wrap;html=1;" vertex="1" parent="1">
          <mxGeometry x="910" y="255" width="120" height="60" as="geometry" />
        </mxCell>
        <mxCell id="OGdJ5ye3wo8_Q0QSOY4Z-81" value="Customer" style="rounded=0;whiteSpace=wrap;html=1;" vertex="1" parent="1">
          <mxGeometry x="1165" y="255" width="120" height="60" as="geometry" />
        </mxCell>
        <mxCell id="OGdJ5ye3wo8_Q0QSOY4Z-82" value="Policy" style="rounded=0;whiteSpace=wrap;html=1;" vertex="1" parent="1">
          <mxGeometry x="1420" y="255" width="120" height="60" as="geometry" />
        </mxCell>
        <mxCell id="OGdJ5ye3wo8_Q0QSOY4Z-83" value="Policy ansehen" style="text;html=1;align=center;verticalAlign=middle;resizable=0;points=[];autosize=1;strokeColor=none;fillColor=none;" vertex="1" parent="1">
          <mxGeometry x="1160" y="70" width="100" height="30" as="geometry" />
        </mxCell>
        <mxCell id="OGdJ5ye3wo8_Q0QSOY4Z-84" value="" style="endArrow=classic;html=1;rounded=0;entryX=0.75;entryY=0;entryDx=0;entryDy=0;exitX=0.952;exitY=1.033;exitDx=0;exitDy=0;exitPerimeter=0;" edge="1" parent="1" source="OGdJ5ye3wo8_Q0QSOY4Z-79" target="OGdJ5ye3wo8_Q0QSOY4Z-82">
          <mxGeometry width="50" height="50" relative="1" as="geometry">
            <mxPoint x="1420" y="450" as="sourcePoint" />
            <mxPoint x="1470" y="400" as="targetPoint" />
          </mxGeometry>
        </mxCell>
        <mxCell id="OGdJ5ye3wo8_Q0QSOY4Z-85" value="1. getPolicy" style="edgeLabel;html=1;align=center;verticalAlign=middle;resizable=0;points=[];" vertex="1" connectable="0" parent="OGdJ5ye3wo8_Q0QSOY4Z-84">
          <mxGeometry x="-0.588" y="-2" relative="1" as="geometry">
            <mxPoint x="82" y="19" as="offset" />
          </mxGeometry>
        </mxCell>
        <mxCell id="OGdJ5ye3wo8_Q0QSOY4Z-86" value="" style="endArrow=classic;html=1;rounded=0;entryX=0.862;entryY=0.983;entryDx=0;entryDy=0;entryPerimeter=0;exitX=0.25;exitY=0;exitDx=0;exitDy=0;" edge="1" parent="1" source="OGdJ5ye3wo8_Q0QSOY4Z-82" target="OGdJ5ye3wo8_Q0QSOY4Z-79">
          <mxGeometry width="50" height="50" relative="1" as="geometry">
            <mxPoint x="1040" y="250" as="sourcePoint" />
            <mxPoint x="1090" y="200" as="targetPoint" />
          </mxGeometry>
        </mxCell>
        <mxCell id="OGdJ5ye3wo8_Q0QSOY4Z-87" value="2. PolicyList" style="edgeLabel;html=1;align=center;verticalAlign=middle;resizable=0;points=[];" vertex="1" connectable="0" parent="OGdJ5ye3wo8_Q0QSOY4Z-86">
          <mxGeometry x="0.4067" y="1" relative="1" as="geometry">
            <mxPoint x="-41" y="15" as="offset" />
          </mxGeometry>
        </mxCell>
      </root>
    </mxGraphModel>
  </diagram>
</mxfile>
